<svg xmlns="http://www.w3.org/2000/svg" viewBox="0 0 24 24" width="24" height="24">
  <defs>
    <linearGradient id="gradient" x1="0%" y1="0%" x2="100%" y2="100%">
      <stop offset="0%" stop-color="#00d2ff"/>
      <stop offset="100%" stop-color="#7928ca"/>
    </linearGradient>
  </defs>
  <path d="M12,2A10,10 0 0,0 2,12A10,10 0 0,0 12,22C13.9,22 15.65,21.47 17.15,20.56L20.59,24L22,22.59L18.56,19.15C19.47,17.65 20,15.9 20,12A10,10 0 0,0 12,2M12,4A8,8 0 0,1 20,12A8,8 0 0,1 12,20A8,8 0 0,1 4,12A8,8 0 0,1 12,4Z" fill="url(#gradient)"/>
</svg>